<svg xmlns="http://www.w3.org/2000/svg" viewBox="0 0 200 218" width="200" height="218">
  <defs>
    <linearGradient id="metal" x1="0" y1="0" x2="0.35" y2="1">
      <stop offset="0%" stop-color="#f8fafc"/>
      <stop offset="22%" stop-color="#e2e8f0"/>
      <stop offset="48%" stop-color="#94a3b8"/>
      <stop offset="72%" stop-color="#cbd5e1"/>
      <stop offset="100%" stop-color="#475569"/>
    </linearGradient>
    <linearGradient id="teal" x1="0" y1="0" x2="1" y2="1">
      <stop offset="0%" stop-color="#5eead4"/>
      <stop offset="100%" stop-color="#0d9488"/>
    </linearGradient>
    <radialGradient id="core" cx="50%" cy="38%" r="75%">
      <stop offset="0%" stop-color="#0f3a2f"/>
      <stop offset="65%" stop-color="#0b251d"/>
      <stop offset="100%" stop-color="#06120d"/>
    </radialGradient>
    <filter id="glow" x="-60%" y="-60%" width="220%" height="220%">
      <feGaussianBlur stdDeviation="2.6" result="b"/>
      <feMerge><feMergeNode in="b"/><feMergeNode in="SourceGraphic"/></feMerge>
    </filter>
  </defs>

  <path d="M100 6 L181 50 L181 124 L100 210 L19 124 L19 50 Z" fill="url(#core)"/>
  <path d="M100 6 L181 50 L181 124 L100 210 L19 124 L19 50 Z" fill="none" stroke="url(#teal)" stroke-width="3" filter="url(#glow)" transform="scale(0.9) translate(11 12)"/>
  <path d="M100 6 L181 50 L181 124 L100 210 L19 124 L19 50 Z" fill="none" stroke="url(#metal)" stroke-width="5.5" stroke-linejoin="round"/>

  <g filter="url(#glow)">
    <path d="M100 106 L100 60 L130 76" transform="rotate(0 100 108)"   fill="none" stroke="#5eead4" stroke-width="13" stroke-linecap="round" stroke-linejoin="round"/>
    <path d="M100 106 L100 60 L130 76" transform="rotate(120 100 108)" fill="none" stroke="#5eead4" stroke-width="13" stroke-linecap="round" stroke-linejoin="round"/>
    <path d="M100 106 L100 60 L130 76" transform="rotate(240 100 108)" fill="none" stroke="#5eead4" stroke-width="13" stroke-linecap="round" stroke-linejoin="round"/>
  </g>
  <g>
    <path d="M100 106 L100 60 L130 76" transform="rotate(0 100 108)"   fill="none" stroke="url(#metal)" stroke-width="9" stroke-linecap="round" stroke-linejoin="round"/>
    <path d="M100 106 L100 60 L130 76" transform="rotate(120 100 108)" fill="none" stroke="url(#metal)" stroke-width="9" stroke-linecap="round" stroke-linejoin="round"/>
    <path d="M100 106 L100 60 L130 76" transform="rotate(240 100 108)" fill="none" stroke="url(#metal)" stroke-width="9" stroke-linecap="round" stroke-linejoin="round"/>
  </g>
  <circle cx="100" cy="108" r="8" fill="url(#metal)"/>
  <circle cx="100" cy="108" r="3.4" fill="#0d2e26"/>
</svg>
